2600 0 1 0           
12 Elysium, Inc 14 ACIS 29.0.1 NT 24 Thu May 07 12:57:16 2026 
1 9.9999999999999995e-007 1e-010 
T @77 A6QGFRJCPYM8XRHUZZ_5FRG4973MF4Q5VAMMMG8A7DF4GJ7B3BQMRPQHQ88MPG6V69SBJENAYA8MP 
body $1 -1 -1 $-1 $2 $-1 $-1 F #
string_attrib-name_attrib-gen-attrib $-1 -1 $-1 $-1 $0 2 1 0 1 1 1 1 1 1 1 1 1 1 1 0 1 1 1 @13 ELY_PART_NAME @9 touch-len #
lump $-1 -1 -1 $-1 $-1 $3 $0 F #
shell $-1 -1 -1 $-1 $-1 $-1 $4 $-1 $2 F #
face $5 -1 -1 $-1 $6 $7 $3 $-1 $8 forward single F F #
rgb_color-st-attrib $-1 -1 $-1 $-1 $4 2 1 2 1 1 1 1 1 1 1 1 1 1 1 0 1 1 1 1 1 1 #
face $9 -1 -1 $-1 $10 $11 $3 $-1 $12 forward single F F #
loop $-1 -1 -1 $-1 $-1 $13 $4 F unknown #
spline-surface $14 -1 -1 $-1 forward { exactsur 0 full nurbs 2 2 both open periodic high none 2 4 
	0 2 1 2 
	0 2 0.33333333333333331 2 0.66666666666666663 2 1 2 
	6.0000000000000027 7.9999999999999973 1.104375693341603e-016 1 
	3.3333333333333339 9.9999999999999982 2.3405556457177988e-016 0.94868329805051377 
	1.5864010347520956e-015 9.9999999999999982 -1.9721522630525295e-031 1 
	6.0000000000000018 7.9999999999999982 10.392304845413264 0.50000000000000011 
	3.3333333333333339 9.9999999999999982 5.7735026918962555 0.474341649025257 
	1.5864010347520956e-015 9.9999999999999982 -1.9721522630525295e-031 0.50000000000000011 
	-2.9999999999999982 8 5.1961524227066329 1 
	-1.6666666666666643 9.9999999999999982 2.8867513459481282 0.94868329805051377 
	1.5864010347520956e-015 9.9999999999999982 -1.9721522630525295e-031 1 
	-12 8.0000000000000018 3.1611367962337251e-016 0.50000000000000011 
	-6.6666666666666616 10 3.4832007028800823e-016 0.474341649025257 
	1.5864010347520956e-015 9.9999999999999982 -1.9721522630525295e-031 0.50000000000000011 
	-3.0000000000000018 8 -5.196152422706632 1 
	-1.6666666666666656 10 -2.8867513459481273 0.94868329805051377 
	1.5864010347520956e-015 9.9999999999999982 -1.9721522630525295e-031 1 
	5.9999999999999938 8 -10.392304845413268 0.50000000000000011 
	3.3333333333333295 9.9999999999999982 -5.7735026918962573 0.474341649025257 
	1.5864010347520956e-015 9.9999999999999982 -1.9721522630525295e-031 0.50000000000000011 
	6.0000000000000027 7.9999999999999982 -1.3591385896426638e-015 1 
	3.3333333333333339 9.9999999999999982 -5.8237563485978876e-016 0.94868329805051377 
	1.5864010347520956e-015 9.9999999999999982 -1.9721522630525295e-031 1 
	0 
	0 
	0 
	0 
	0 
	0 
	0 
	F 1 F 0 F 1 F 0 } I I I I #
rgb_color-st-attrib $-1 -1 $-1 $-1 $6 2 1 2 1 1 1 1 1 1 1 1 1 1 1 0 1 1 1 1 1 1 #
face $15 -1 -1 $-1 $-1 $16 $3 $-1 $17 forward single F F #
loop $-1 -1 -1 $-1 $-1 $18 $6 F unknown #
cone-surface $19 -1 -1 $-1 8.8817841970012523e-016 7.9999999999999991 4.4408920985006262e-016 0 -1 0 -0.34538416175740461 0 5.9900508996841682 1 I I 0 1 5.9999999999999973 forward I I I I #
coedge $-1 -1 -1 $-1 $20 $21 $22 $23 forward $7 $24 #
rgb_color-st-attrib $-1 -1 $-1 $-1 $8 2 1 2 1 1 1 1 1 1 1 1 1 1 1 0 1 1 1 1 1 1 #
rgb_color-st-attrib $-1 -1 $-1 $-1 $10 2 1 2 1 1 1 1 1 1 1 1 1 1 1 0 1 1 1 1 1 1 #
loop $-1 -1 -1 $-1 $-1 $25 $10 F unknown #
spline-surface $26 -1 -1 $-1 forward { exactsur 1 full nurbs 2 2 both open periodic low none 2 4 
	0 2 1 2 
	0 2 0.33333333333333331 2 0.66666666666666663 2 1 2 
	1.8401662975235601e-015 9 -6.7616649018943857e-031 1 
	3.333333333333337 9 2.3405556457178053e-016 0.94868329805051366 
	6.0000000000000018 6.9999999999999982 8.6538922607926791e-016 1 
	1.8401662975235601e-015 9 -6.7616649018943857e-031 0.50000000000000011 
	3.3333333333333366 9 5.77350269189626 0.47434164902525694 
	6.0000000000000018 7 10.392304845413262 0.50000000000000011 
	1.8401662975235601e-015 9 -6.7616649018943857e-031 1 
	-1.6666666666666656 9 2.8867513459481309 0.94868329805051366 
	-2.9999999999999973 6.9999999999999991 5.196152422706632 1 
	1.8401662975235601e-015 9 -6.7616649018943857e-031 0.50000000000000011 
	-6.6666666666666661 9 3.4832007028800803e-016 0.47434164902525694 
	-11.999999999999996 6.9999999999999982 1.0710653363684785e-015 0.50000000000000011 
	1.8401662975235601e-015 9 -6.7616649018943857e-031 1 
	-1.6666666666666672 9 -2.8867513459481304 0.94868329805051366 
	-3.0000000000000009 6.9999999999999973 -5.1961524227066302 1 
	1.8401662975235601e-015 9 -6.7616649018943857e-031 0.50000000000000011 
	3.3333333333333326 9 -5.7735026918962618 0.47434164902525694 
	5.9999999999999938 6.9999999999999964 -10.392304845413266 0.50000000000000011 
	1.8401662975235601e-015 9 -6.7616649018943857e-031 1 
	3.333333333333337 9 -5.8237563485978866e-016 0.94868329805051366 
	6.0000000000000018 6.9999999999999982 -6.0418693289755574e-016 1 
	0 
	0 
	0 
	0 
	0 
	0 
	0 
	F 1 F 0 F 1 F 0 } I I I I #
coedge $-1 -1 -1 $-1 $22 $27 $28 $29 reversed $11 $-1 #
rgb_color-st-attrib $-1 -1 $-1 $-1 $12 2 1 2 1 1 1 1 1 1 1 1 1 1 1 0 1 1 1 1 1 1 #
coedge $-1 -1 -1 $-1 $30 $13 $31 $32 reversed $7 $33 #
coedge $-1 -1 -1 $-1 $13 $30 $30 $34 reversed $7 $35 #
coedge $-1 -1 -1 $-1 $31 $18 $13 $23 reversed $11 $-1 #
edge $-1 -1 -1 $-1 $36 1.2782528350976034e-017 $37 4.7123889803846897 $13 $38 forward @7 unknown F #
pcurve $-1 -1 -1 $-1 0 forward { exppc 2 nubs 1 open 2 
	1.2782528350976034e-017 1 4.7123889803846897 1 
	0 1 
	0 0.24401693583673362 
	0.00050000000000000001 
	-1 
	spline forward { ref 0 } I I I I 
	} 0 0 #
coedge $-1 -1 -1 $-1 $39 $40 $41 $42 forward $16 $43 #
rgb_color-st-attrib $-1 -1 $-1 $-1 $17 2 1 2 1 1 1 1 1 1 1 1 1 1 1 0 1 1 1 1 1 1 #
coedge $-1 -1 -1 $-1 $18 $41 $39 $44 reversed $11 $-1 #
coedge $-1 -1 -1 $-1 $41 $31 $18 $29 forward $11 $-1 #
edge $-1 -1 -1 $-1 $37 0 $45 1 $18 $46 forward @7 unknown F #
coedge $-1 -1 -1 $-1 $21 $20 $21 $34 forward $7 $47 #
coedge $-1 -1 -1 $-1 $28 $22 $20 $32 forward $11 $-1 #
edge $-1 -1 -1 $-1 $36 0 $37 1.570796326794897 $20 $48 forward @7 unknown F #
pcurve $-1 -1 -1 $-1 0 forward { exppc 3 nubs 1 open 2 
	-1.570796326794897 1 0 1 
	0 0.24401693583673356 
	0 0 
	0.00050000000000000001 
	-1 
	spline forward { ref 0 } I I I I 
	} 0 0 #
edge $-1 -1 -1 $-1 $36 0 $49 1 $30 $50 forward @7 unknown F #
pcurve $-1 -1 -1 $-1 0 forward { exppc 4 nubs 1 open 2 
	-1 1 0 1 
	1 1 
	0 1 
	0.00050000000000000001 
	-1 
	spline forward { ref 0 } I I I I 
	} 0 0 #
vertex $-1 -1 -1 $-1 $23 $51 #
vertex $-1 -1 -1 $-1 $23 $52 #
ellipse-curve $-1 -1 -1 $-1 8.8817841970012523e-016 8 0 0 1 0 6 0 -1.4534943481917512e-016 1 I I #
coedge $-1 -1 -1 $-1 $53 $25 $27 $44 forward $16 $54 #
coedge $-1 -1 -1 $-1 $25 $53 $53 $55 reversed $16 $56 #
coedge $-1 -1 -1 $-1 $27 $28 $25 $42 reversed $11 $-1 #
edge $-1 -1 -1 $-1 $57 0 $45 1.570796326794897 $41 $58 forward @7 unknown F #
pcurve $-1 -1 -1 $-1 0 forward { exppc 5 nubs 1 open 2 
	0 1 1.570796326794897 1 
	1 0 
	1 0.24401693583673353 
	0.00050000000000000001 
	-1 
	spline forward { ref 1 } I I I I 
	} 0 0 #
edge $-1 -1 -1 $-1 $45 -2.4224905803195753e-017 $57 4.7123889803846897 $27 $59 forward @7 unknown F #
vertex $-1 -1 -1 $-1 $29 $60 #
straight-curve $-1 -1 -1 $-1 -1.5339034021171326e-016 8 6 0 -1 0 I I #
pcurve $-1 -1 -1 $-1 0 forward { exppc 6 nubs 1 open 2 
	0 1 1 1 
	0 0 
	1 0 
	0.00050000000000000001 
	-1 
	spline forward { ref 0 } I I I I 
	} 0 0 #
ellipse-curve $-1 -1 -1 $-1 1.7763568394002505e-015 8 1.7763568394002505e-015 0 -1 0 5.9999999999999982 0 -1.9984014443252818e-015 1 I I #
vertex $61 -1 -1 $-1 $34 $62 #
intcurve-curve $-1 -1 -1 $-1 forward { exactcur 7 full nurbs 2 open 2 
	0 2 1 2 
	6.0000000000000027 7.9999999999999973 1.104375693341603e-016 1 
	3.3333333333333344 9.9999999999999982 2.3405556457177988e-016 0.94868329805051377 
	1.5864010347520956e-015 9.9999999999999982 -1.9721522630525295e-031 1 
	0 
	null_surface 
	null_surface 
	nullbs 
	nullbs 
	-1 
	-1 
	I I 
	0 
	0 
	0 
	
	-1 
	none F F 1 F 0 } I I #
point $-1 -1 -1 $-1 6 8 -2.2204460492503131e-016 #
point $-1 -1 -1 $-1 7.3478807948841197e-016 8 6 #
coedge $-1 -1 -1 $-1 $40 $39 $40 $55 forward $16 $63 #
pcurve $-1 -1 -1 $-1 0 forward { exppc 8 nubs 1 open 2 
	-2.4224905803195753e-017 1 4.7123889803846897 1 
	1 0.24401693583673359 
	1 1 
	0.00050000000000000001 
	-1 
	spline forward { ref 1 } I I I I 
	} 0 0 #
edge $-1 -1 -1 $-1 $57 0 $64 1 $53 $65 forward @7 unknown F #
pcurve $-1 -1 -1 $-1 0 forward { exppc 9 nubs 1 open 2 
	-1 1 0 1 
	0 0 
	1 0 
	0.00050000000000000001 
	-1 
	spline forward { ref 1 } I I I I 
	} 0 0 #
vertex $-1 -1 -1 $-1 $42 $66 #
ellipse-curve $-1 -1 -1 $-1 1.7763568394002505e-015 7 1.7763568394002505e-015 0 -1 0 5.9999999999999982 0 -1.9984014443252818e-015 1 I I #
ellipse-curve $-1 -1 -1 $-1 8.8817841970012523e-016 7 -1.7763568394002505e-015 -2.0934566115783682e-016 -1 -1.0423312619664102e-032 -2.9873977503088769e-016 0 6 1 I I #
point $-1 -1 -1 $-1 7.3478807948841197e-016 7 6 #
rgb_color-st-attrib $-1 -1 $-1 $-1 $49 2 1 2 1 1 1 1 1 1 1 1 1 1 1 0 1 1 1 0 1 0 #
point $-1 -1 -1 $-1 1.7763568394002505e-015 9.9999999999999964 -1.9721522630525295e-031 #
pcurve $-1 -1 -1 $-1 0 forward { exppc 10 nubs 1 open 2 
	0 1 1 1 
	1 1 
	0 1 
	0.00050000000000000001 
	-1 
	spline forward { ref 1 } I I I I 
	} 0 0 #
vertex $67 -1 -1 $-1 $55 $68 #
intcurve-curve $-1 -1 -1 $-1 forward { exactcur 11 full nurbs 2 open 2 
	0 2 1 2 
	6.0000000000000018 6.9999999999999982 8.6538922607926791e-016 1 
	3.3333333333333366 9 2.3405556457178048e-016 0.94868329805051366 
	1.8401662975235597e-015 9.0000000000000018 -6.7616649018943865e-031 1 
	0 
	null_surface 
	null_surface 
	nullbs 
	nullbs 
	-1 
	-1 
	I I 
	0 
	0 
	0 
	
	-1 
	none F F 1 F 0 } I I #
point $-1 -1 -1 $-1 6 7 -2.2204460492503131e-016 #
rgb_color-st-attrib $-1 -1 $-1 $-1 $64 2 1 2 1 1 1 1 1 1 1 1 1 1 1 0 1 1 1 0 1 0 #
point $-1 -1 -1 $-1 1.7763568394002505e-015 9.0000000000000018 -6.9025329206838533e-031 #
End-of-ACIS-data 